<svg width="391" height="409" viewBox="0 0 391 409" fill="none" xmlns="http://www.w3.org/2000/svg">
<g clip-path="url(#clip0_8_15)">
<path d="M329.743 212.275H61.2012V325.399H329.743V212.275Z" fill="#38BFF2" stroke="#263238" stroke-linecap="round" stroke-linejoin="round"/>
<path d="M92.0753 219.122H66.8125V233.106H92.0753V219.122Z" fill="white" stroke="#263238" stroke-miterlimit="10"/>
<path d="M323.526 287.31H283.734V301.295H323.526V287.31Z" fill="white" stroke="#263238" stroke-miterlimit="10"/>
<path d="M323.538 236.588H298.974V250.573H323.538V236.588Z" fill="white" stroke="#263238" stroke-miterlimit="10"/>
<path d="M92.0753 270.065H66.8125V284.05H92.0753V270.065Z" fill="white" stroke="#263238" stroke-miterlimit="10"/>
<path d="M87.2672 253.216H66.8125V267.201H87.2672V253.216Z" fill="white" stroke="#263238" stroke-miterlimit="10"/>
<path d="M80.7943 236.169H66.8125V250.154H80.7943V236.169Z" fill="white" stroke="#263238" stroke-miterlimit="10"/>
<path d="M98.6527 236.169H84.6709V250.154H98.6527V236.169Z" fill="white" stroke="#263238" stroke-miterlimit="10"/>
<path d="M116.5 236.169H102.518V250.154H116.5V236.169Z" fill="white" stroke="#263238" stroke-miterlimit="10"/>
<path d="M134.347 236.169H120.365V250.154H134.347V236.169Z" fill="white" stroke="#263238" stroke-miterlimit="10"/>
<path d="M152.205 236.169H138.224V250.154H152.205V236.169Z" fill="white" stroke="#263238" stroke-miterlimit="10"/>
<path d="M170.052 236.169H156.07V250.154H170.052V236.169Z" fill="white" stroke="#263238" stroke-miterlimit="10"/>
<path d="M187.899 236.169H173.917V250.154H187.899V236.169Z" fill="white" stroke="#263238" stroke-miterlimit="10"/>
<path d="M205.758 236.169H191.776V250.154H205.758V236.169Z" fill="white" stroke="#263238" stroke-miterlimit="10"/>
<path d="M223.605 236.169H209.623V250.154H223.605V236.169Z" fill="white" stroke="#263238" stroke-miterlimit="10"/>
<path d="M241.463 236.169H227.481V250.154H241.463V236.169Z" fill="white" stroke="#263238" stroke-miterlimit="10"/>
<path d="M259.31 236.169H245.328V250.154H259.31V236.169Z" fill="white" stroke="#263238" stroke-miterlimit="10"/>
<path d="M277.157 236.169H263.175V250.154H277.157V236.169Z" fill="white" stroke="#263238" stroke-miterlimit="10"/>
<path d="M295.015 236.169H281.033V250.154H295.015V236.169Z" fill="white" stroke="#263238" stroke-miterlimit="10"/>
<path d="M80.7943 304.555H66.8125V318.54H80.7943V304.555Z" fill="white" stroke="#263238" stroke-miterlimit="10"/>
<path d="M98.6527 304.555H84.6709V318.54H98.6527V304.555Z" fill="white" stroke="#263238" stroke-miterlimit="10"/>
<path d="M116.5 304.555H102.518V318.54H116.5V304.555Z" fill="white" stroke="#263238" stroke-miterlimit="10"/>
<path d="M137.432 304.555H120.365V318.54H137.432V304.555Z" fill="white" stroke="#263238" stroke-miterlimit="10"/>
<path d="M226.69 304.555H141.297V318.54H226.69V304.555Z" fill="white" stroke="#263238" stroke-miterlimit="10"/>
<path d="M287.227 304.555H273.245V318.54H287.227V304.555Z" fill="white" stroke="#263238" stroke-miterlimit="10"/>
<path d="M305.109 304.555H291.127V318.54H305.109V304.555Z" fill="white" stroke="#263238" stroke-miterlimit="10"/>
<path d="M251.894 304.555H230.182V318.54H251.894V304.555Z" fill="white" stroke="#263238" stroke-miterlimit="10"/>
<path d="M323.526 304.555H309.544V318.54H323.526V304.555Z" fill="white" stroke="#263238" stroke-miterlimit="10"/>
<path d="M105.219 253.216H91.2368V267.201H105.219V253.216Z" fill="white" stroke="#263238" stroke-miterlimit="10"/>
<path d="M123.066 253.216H109.084V267.201H123.066V253.216Z" fill="white" stroke="#263238" stroke-miterlimit="10"/>
<path d="M140.924 253.216H126.942V267.201H140.924V253.216Z" fill="white" stroke="#263238" stroke-miterlimit="10"/>
<path d="M158.771 253.216H144.789V267.201H158.771V253.216Z" fill="white" stroke="#263238" stroke-miterlimit="10"/>
<path d="M176.63 253.216H162.648V267.201H176.63V253.216Z" fill="white" stroke="#263238" stroke-miterlimit="10"/>
<path d="M194.477 253.216H180.495V267.201H194.477V253.216Z" fill="white" stroke="#263238" stroke-miterlimit="10"/>
<path d="M212.324 253.216H198.342V267.201H212.324V253.216Z" fill="white" stroke="#263238" stroke-miterlimit="10"/>
<path d="M230.182 253.216H216.2V267.201H230.182V253.216Z" fill="white" stroke="#263238" stroke-miterlimit="10"/>
<path d="M248.029 253.216H234.047V267.201H248.029V253.216Z" fill="white" stroke="#263238" stroke-miterlimit="10"/>
<path d="M265.876 253.216H251.895V267.201H265.876V253.216Z" fill="white" stroke="#263238" stroke-miterlimit="10"/>
<path d="M283.735 253.216H269.753V267.201H283.735V253.216Z" fill="white" stroke="#263238" stroke-miterlimit="10"/>
<path d="M301.581 253.216H287.6V267.201H301.581V253.216Z" fill="white" stroke="#263238" stroke-miterlimit="10"/>
<path d="M323.526 253.216V284.26H309.544V267.201H305.446V253.216H323.526Z" fill="white" stroke="#263238" stroke-miterlimit="10"/>
<path d="M109.317 270.263H95.335V284.248H109.317V270.263Z" fill="white" stroke="#263238" stroke-miterlimit="10"/>
<path d="M127.163 270.263H113.182V284.248H127.163V270.263Z" fill="white" stroke="#263238" stroke-miterlimit="10"/>
<path d="M145.011 270.263H131.029V284.248H145.011V270.263Z" fill="white" stroke="#263238" stroke-miterlimit="10"/>
<path d="M162.87 270.263H148.888V284.248H162.87V270.263Z" fill="white" stroke="#263238" stroke-miterlimit="10"/>
<path d="M180.716 270.263H166.734V284.248H180.716V270.263Z" fill="white" stroke="#263238" stroke-miterlimit="10"/>
<path d="M198.575 270.263H184.593V284.248H198.575V270.263Z" fill="white" stroke="#263238" stroke-miterlimit="10"/>
<path d="M216.421 270.263H202.439V284.248H216.421V270.263Z" fill="white" stroke="#263238" stroke-miterlimit="10"/>
<path d="M234.268 270.263H220.287V284.248H234.268V270.263Z" fill="white" stroke="#263238" stroke-miterlimit="10"/>
<path d="M252.127 270.263H238.146V284.248H252.127V270.263Z" fill="white" stroke="#263238" stroke-miterlimit="10"/>
<path d="M269.974 270.263H255.992V284.248H269.974V270.263Z" fill="white" stroke="#263238" stroke-miterlimit="10"/>
<path d="M287.821 270.263H273.839V284.248H287.821V270.263Z" fill="white" stroke="#263238" stroke-miterlimit="10"/>
<path d="M305.679 270.263H291.697V284.248H305.679V270.263Z" fill="white" stroke="#263238" stroke-miterlimit="10"/>
<path d="M101.726 287.31H87.7446V301.295H101.726V287.31Z" fill="white" stroke="#263238" stroke-miterlimit="10"/>
<path d="M119.573 287.31H105.591V301.295H119.573V287.31Z" fill="white" stroke="#263238" stroke-miterlimit="10"/>
<path d="M137.432 287.31H123.45V301.295H137.432V287.31Z" fill="white" stroke="#263238" stroke-miterlimit="10"/>
<path d="M155.279 287.31H141.297V301.295H155.279V287.31Z" fill="white" stroke="#263238" stroke-miterlimit="10"/>
<path d="M173.137 287.31H159.155V301.295H173.137V287.31Z" fill="white" stroke="#263238" stroke-miterlimit="10"/>
<path d="M190.984 287.31H177.002V301.295H190.984V287.31Z" fill="white" stroke="#263238" stroke-miterlimit="10"/>
<path d="M208.831 287.31H194.85V301.295H208.831V287.31Z" fill="white" stroke="#263238" stroke-miterlimit="10"/>
<path d="M226.69 287.31H212.708V301.295H226.69V287.31Z" fill="white" stroke="#263238" stroke-miterlimit="10"/>
<path d="M244.537 287.31H230.555V301.295H244.537V287.31Z" fill="white" stroke="#263238" stroke-miterlimit="10"/>
<path d="M262.383 287.31H248.401V301.295H262.383V287.31Z" fill="white" stroke="#263238" stroke-miterlimit="10"/>
<path d="M280.242 287.31H266.26V301.295H280.242V287.31Z" fill="white" stroke="#263238" stroke-miterlimit="10"/>
<path d="M109.317 219.96H95.335V233.945H109.317V219.96Z" fill="white" stroke="#263238" stroke-miterlimit="10"/>
<path d="M127.163 219.96H113.182V233.945H127.163V219.96Z" fill="white" stroke="#263238" stroke-miterlimit="10"/>
<path d="M145.011 219.96H131.029V233.945H145.011V219.96Z" fill="white" stroke="#263238" stroke-miterlimit="10"/>
<path d="M162.87 219.96H148.888V233.945H162.87V219.96Z" fill="white" stroke="#263238" stroke-miterlimit="10"/>
<path d="M180.716 219.96H166.734V233.945H180.716V219.96Z" fill="white" stroke="#263238" stroke-miterlimit="10"/>
<path d="M198.575 219.96H184.593V233.945H198.575V219.96Z" fill="white" stroke="#263238" stroke-miterlimit="10"/>
<path d="M216.421 219.96H202.439V233.945H216.421V219.96Z" fill="white" stroke="#263238" stroke-miterlimit="10"/>
<path d="M234.268 219.96H220.287V233.945H234.268V219.96Z" fill="white" stroke="#263238" stroke-miterlimit="10"/>
<path d="M252.127 219.96H238.146V233.945H252.127V219.96Z" fill="white" stroke="#263238" stroke-miterlimit="10"/>
<path d="M269.974 219.96H255.992V233.945H269.974V219.96Z" fill="white" stroke="#263238" stroke-miterlimit="10"/>
<path d="M287.821 219.96H273.839V233.945H287.821V219.96Z" fill="white" stroke="#263238" stroke-miterlimit="10"/>
<path d="M305.679 219.96H291.697V233.945H305.679V219.96Z" fill="white" stroke="#263238" stroke-miterlimit="10"/>
<path d="M323.526 219.96H309.544V233.945H323.526V219.96Z" fill="white" stroke="#263238" stroke-miterlimit="10"/>
<path d="M83.7514 287.31H66.8125V301.295H83.7514V287.31Z" fill="white" stroke="#263238" stroke-miterlimit="10"/>
<path d="M61.2012 212.997L66.8125 211.122H326.099L329.79 212.973L61.2012 212.997Z" fill="#263238"/>
<path d="M296.354 347.022L296.494 295.543C297.053 293.47 297.507 285.832 298.694 280.51C300.72 271.591 292.757 260.831 292.198 260.482C289.963 259.085 285.213 259.108 285.213 259.108C285.213 259.108 280.556 253.798 276.4 252.121C273.544 251.107 270.5 250.73 267.483 251.015C264.282 248.372 260.713 246.211 256.889 244.599C255.391 244.033 253.768 243.89 252.195 244.186C250.622 244.482 249.16 245.205 247.971 246.276L242.732 254.427C241.967 255.584 241.62 256.967 241.749 258.348C241.878 259.729 242.476 261.025 243.442 262.019C245.934 264.464 249.124 263.323 250.73 263.323C252.954 263.323 253.792 260.808 253.792 260.808C253.792 260.808 254.339 273.908 253.792 275.585C253.221 277.25 249.054 281.151 249.054 281.151L235.083 262.718C230.288 256.209 226.091 249.28 222.545 242.014C222.141 241.128 221.612 240.305 220.974 239.569C218.529 236.809 213.302 235.994 211.94 241.118C211.605 242.756 211.681 244.453 212.161 246.055C217.982 263.265 225.409 276.272 232.173 289.826C236.189 297.872 234.699 297.779 236.702 301.412C236.469 301.575 236.585 301.877 236.329 302.029C235.351 305.941 234.664 309.865 233.675 313.778C232.855 308.866 231.354 304.092 229.216 299.595C229.781 296.87 229.988 294.083 229.833 291.304C229.658 288.497 228.407 285.865 226.34 283.957C225.183 283.021 223.763 282.467 222.277 282.373C221.213 282.304 220.162 282.638 219.334 283.309C218.505 283.98 217.96 284.939 217.807 285.995C217.575 288.124 217.186 290.234 216.643 292.306C215.753 295.011 214.679 297.653 213.43 300.212C213.43 305.417 216.643 304.567 218.983 325.457C220.799 341.759 241.754 352.483 253.163 364.232L266.675 404.153C283.675 396.153 290.675 392.153 305.175 381.153L296.354 347.022Z" fill="white"/>
<path d="M226.631 318.843C226.77 318.587 226.887 318.331 227.003 318.063C226.88 318.15 226.781 318.268 226.715 318.404C226.65 318.541 226.621 318.692 226.631 318.843Z" fill="#92E3A9"/>
<path d="M260.194 246.812C258.596 245.563 256.696 244.759 254.688 244.483L260.194 246.812Z" fill="#92E3A9"/>
<path d="M253.989 252.261L254.059 252.843C254.1 252.647 254.075 252.442 253.989 252.261Z" fill="#92E3A9"/>
<g opacity="0.5">
<path opacity="0.5" d="M226.631 318.843C226.77 318.587 226.887 318.331 227.003 318.063C226.88 318.15 226.781 318.268 226.715 318.404C226.65 318.541 226.621 318.692 226.631 318.843Z" fill="white"/>
<path opacity="0.5" d="M260.194 246.812C258.596 245.563 256.696 244.759 254.688 244.483L260.194 246.812Z" fill="white"/>
<path opacity="0.5" d="M253.989 252.261L254.059 252.843C254.099 252.647 254.075 252.442 253.989 252.261Z" fill="white"/>
<path opacity="0.5" d="M260.404 302.762C259.88 301.458 257.342 297.709 255.863 300.305L260.404 302.762Z" fill="white"/>
</g>
<path d="M217.12 296.498C215.767 297.564 214.612 298.861 213.709 300.329L217.12 296.498Z" fill="white"/>
<path d="M266.675 404.153L253.279 364.197C241.87 352.448 220.915 341.701 219.099 325.422C216.771 304.532 213.546 305.382 213.546 300.177C214.795 297.618 215.869 294.976 216.759 292.271C217.302 290.199 217.691 288.089 217.923 285.96C218.076 284.904 218.621 283.945 219.45 283.274C220.279 282.603 221.33 282.269 222.394 282.338C223.879 282.432 225.299 282.986 226.457 283.922C228.523 285.83 229.775 288.462 229.949 291.269C230.104 294.048 229.897 296.835 229.332 299.56C231.47 304.057 232.971 308.831 233.791 313.743C234.781 309.83 235.467 305.906 236.445 301.994C236.702 301.842 236.585 301.54 236.818 301.377C234.816 297.744 236.306 297.883 232.289 289.791C225.525 276.237 218.11 263.23 212.277 246.02C211.797 244.418 211.721 242.721 212.056 241.083C213.418 235.959 218.645 236.774 221.09 239.534C221.728 240.27 222.257 241.093 222.661 241.979C226.207 249.245 230.404 256.174 235.2 262.683L249.17 281.116C249.17 281.116 253.338 277.215 253.908 275.55C254.455 273.873 253.908 260.773 253.908 260.773C253.908 260.773 253.07 263.288 250.846 263.288C249.24 263.288 246.05 264.453 243.559 261.984C242.582 261.006 241.969 259.725 241.818 258.351C241.668 256.977 241.99 255.593 242.732 254.427L247.936 246.276C249.125 245.205 250.586 244.482 252.159 244.186C253.732 243.89 255.356 244.033 256.854 244.599C260.678 246.211 264.247 248.372 267.448 251.015C270.465 250.73 273.509 251.107 276.365 252.121C280.556 253.81 285.178 259.108 285.178 259.108C285.178 259.108 289.916 259.108 292.163 260.482C292.722 260.831 300.685 271.591 298.659 280.51C297.495 285.832 297.018 293.47 296.459 295.543L296.319 347.022L305.675 381.153" stroke="#263238" stroke-miterlimit="10"/>
<path d="M268.763 252.832C270.813 260.427 271.877 268.254 271.93 276.12C271.864 277.438 272.005 278.759 272.349 280.033C272.529 280.666 272.869 281.243 273.336 281.708C273.803 282.172 274.381 282.51 275.015 282.688" stroke="#263238" stroke-miterlimit="10"/>
<path d="M285.225 260.482C288.718 267.771 285.144 284.05 285.4 285.203C285.509 285.782 285.742 286.331 286.081 286.813C286.421 287.295 286.859 287.699 287.367 287.997" stroke="#263238" stroke-miterlimit="10"/>
<path d="M255.212 251.83C254.805 254.159 254.467 256.837 254.048 259.155C252.693 257.988 251.583 256.564 250.784 254.965C249.985 253.365 249.511 251.623 249.391 249.839" stroke="#263238" stroke-miterlimit="10"/>
<path d="M232.906 313.964L230.392 315.07" stroke="#263238" stroke-miterlimit="10"/>
<path d="M233.547 315.979C233.145 317.922 233.145 319.927 233.547 321.871" stroke="#263238" stroke-miterlimit="10"/>
<path d="M248.262 294.215L251.044 299.234" stroke="#263238" stroke-miterlimit="10"/>
<path d="M253.617 275.852L256.387 271.94" stroke="#263238" stroke-miterlimit="10"/>
<path d="M292.582 294.215L291.744 297.289" stroke="#263238" stroke-miterlimit="10"/>
<path d="M285.807 285.866C286.583 283.258 287.402 280.65 288.263 278.042" stroke="#263238" stroke-miterlimit="10"/>
<path d="M293.956 271.952C294.693 271.566 295.552 271.487 296.347 271.734C297.141 271.981 297.805 272.532 298.194 273.267" stroke="#263238" stroke-miterlimit="10"/>
<path d="M277.273 258.584C278.24 258.313 279.258 258.288 280.236 258.512C281.214 258.735 282.121 259.201 282.873 259.865" stroke="#263238" stroke-miterlimit="10"/>
<path d="M225.42 266.351C226.324 265.36 227.449 264.597 228.703 264.123C229.957 263.65 231.306 263.479 232.638 263.626" stroke="#263238" stroke-miterlimit="10"/>
<path d="M214.908 244.39C215.74 243.789 216.683 243.359 217.681 243.123C218.68 242.888 219.716 242.851 220.729 243.016" stroke="#263238" stroke-miterlimit="10"/>
<path d="M217.12 296.498C215.767 297.564 214.612 298.861 213.709 300.329" stroke="#263238" stroke-miterlimit="10"/>
<path d="M218.191 291.2C220.031 289.895 222.965 292.83 224.653 291.328C224.952 290.99 225.161 290.583 225.26 290.143C225.36 289.704 225.347 289.246 225.223 288.812C224.974 287.946 224.861 287.047 224.885 286.146" stroke="#263238" stroke-miterlimit="10"/>
<path d="M270.102 283.13C272.342 287.781 272.798 293.093 271.382 298.058" stroke="#263238" stroke-miterlimit="10"/>
<path d="M283.63 290.315C283.992 292.516 283.58 294.775 282.465 296.707" stroke="#263238" stroke-miterlimit="10"/>
<path d="M166.623 289.661C166.123 287.332 162.851 287.693 162.851 287.693C151.85 288.333 150.371 305.578 150.371 305.578L146.425 317.397L145.261 299.628L145.377 276.724C145.377 276.724 148.707 254.809 147.228 251.374C146.89 250.427 146.276 249.603 145.464 249.009C144.653 248.415 143.681 248.079 142.676 248.044C136.273 246.437 135.901 255.671 135.901 255.671L130.499 274.511L128.217 294.831L126.378 293.841C126.378 293.841 125.504 272.287 125.877 271.926C126.25 271.565 128.462 257.022 128.462 257.022C128.462 257.022 129.626 254.32 131.174 250.874C131.612 249.906 131.838 248.856 131.838 247.794C131.838 246.732 131.612 245.682 131.174 244.714C128.578 239.416 123.176 241.884 122.059 244.714C120.746 247.587 119.269 250.383 117.635 253.086L111.464 269.959C111.697 273.778 109.509 292.607 109.509 292.607L107.285 291.605L103.711 280.543L106.435 269.213C106.435 269.213 112.384 262.693 111.348 258.85C110.312 255.007 105.318 256.148 105.318 256.148L95.2358 268.2H92.2671L85.282 277.073C82.1112 286.59 81.5444 296.782 83.6405 306.591L85.2471 314.079V362.484C85.2471 362.484 80.4623 370.239 80.4623 370.972C80.4623 371.31 75.9339 379.526 73.1748 387.153C85.197 395.014 98.1748 401.653 113.675 408.153C118.087 395.729 125.609 378.751 128.462 375.653C134.119 369.494 145.202 357.675 145.202 357.675C145.202 357.675 157.787 337.449 159.266 330.718C160.43 325.199 163.434 315.185 164.458 311.75C164.696 310.97 164.791 310.153 164.737 309.339C164.656 307.523 164.481 303.995 164.481 300.886C164.481 296.391 167.101 291.955 166.623 289.661Z" fill="white"/>
<path d="M73.1748 387.153C76.6748 379.153 81.5858 367.993 81.5858 367.656C81.5858 366.922 86.3706 359.167 86.3706 359.167V310.774L84.764 303.333C82.6693 293.549 83.2239 283.383 86.3706 273.885L93.3556 265.012H96.3243L106.406 252.96C106.406 252.96 111.459 251.795 112.437 255.661C113.415 259.527 107.524 266.001 107.524 266.001L104.8 277.331L108.374 288.393L110.597 289.395C110.597 289.395 112.786 270.566 112.553 266.747L118.723 249.874C120.358 247.171 121.835 244.376 123.147 241.502C124.311 238.672 129.666 236.204 132.263 241.502C132.7 242.47 132.926 243.52 132.926 244.582C132.926 245.644 132.7 246.694 132.263 247.662C130.772 251.155 129.55 253.81 129.55 253.81C129.55 253.81 127.338 268.342 126.966 268.715C126.593 269.087 127.466 290.629 127.466 290.629L129.306 291.619L131.529 271.3L136.931 252.459C136.931 252.459 137.304 243.225 143.707 244.832C144.712 244.867 145.683 245.203 146.495 245.797C147.306 246.391 147.921 247.215 148.258 248.162C149.737 251.597 146.407 273.512 146.407 273.512L146.291 296.416L147.455 314.185L151.402 302.366C151.402 302.366 152.88 285.121 163.882 284.481C163.882 284.481 167.153 284.143 167.654 286.449C168.154 288.754 165.512 293.179 165.512 297.616C165.512 300.725 165.686 304.253 165.768 306.069C165.821 306.883 165.726 307.7 165.488 308.48C164.464 311.915 161.519 321.929 160.296 327.448C158.818 334.178 146.233 354.405 146.233 354.405C146.233 354.405 135.15 366.223 129.492 372.383C126.64 375.481 118.087 395.729 113.675 408.153" stroke="#263238" stroke-miterlimit="10"/>
<path d="M110.434 291.176C110.744 292.333 110.753 293.549 110.462 294.711C110.17 295.872 109.588 296.94 108.77 297.813" fill="white"/>
<path d="M110.434 291.176C110.744 292.333 110.753 293.549 110.462 294.711C110.17 295.872 109.588 296.94 108.77 297.813" stroke="#263238" stroke-miterlimit="10"/>
<path d="M91.6562 307.455C93.2512 304.975 94.8112 301.575 94.3804 298.664C93.5422 292.946 90.8879 286.367 92.1103 280.708C92.8554 277.098 93.6121 273.477 94.3572 269.867" fill="white"/>
<path d="M91.6562 307.455C93.2512 304.975 94.8112 301.575 94.3804 298.664C93.5422 292.946 90.8879 286.367 92.1103 280.708C92.8554 277.098 93.6121 273.477 94.3572 269.867" stroke="#263238" stroke-miterlimit="10"/>
<path d="M138.072 253.449C139.98 252.946 141.985 252.946 143.893 253.449C143.893 252.913 143.893 252.378 143.893 251.83" stroke="#263238" stroke-miterlimit="10"/>
<path d="M122.821 246.171C123.382 246.558 124.039 246.783 124.719 246.821C125.399 246.86 126.077 246.71 126.678 246.389C127.279 246.068 127.78 245.588 128.127 245.001C128.473 244.414 128.651 243.744 128.642 243.062" stroke="#263238" stroke-miterlimit="10"/>
<path d="M164.86 286.6C163.25 287.014 161.836 287.977 160.86 289.323C159.885 290.668 159.41 292.312 159.516 293.971L162.368 294.821" stroke="#263238" stroke-miterlimit="10"/>
<path d="M127.397 288.021C127.525 289.977 127.28 294.646 127.397 296.591V288.021Z" fill="white"/>
<path d="M127.397 288.021C127.525 289.977 127.28 294.646 127.397 296.591" stroke="#263238" stroke-miterlimit="10"/>
<path d="M129.538 290.722C129.305 293.928 129.069 297.13 128.828 300.329C128.828 299.921 128.828 299.514 128.828 299.106" fill="white"/>
<path d="M129.538 290.722C129.305 293.928 129.069 297.13 128.828 300.329C128.828 299.921 128.828 299.514 128.828 299.106" stroke="#263238" stroke-miterlimit="10"/>
<path d="M147.269 317.714C148.114 321.252 147.728 324.973 146.174 328.263L147.269 317.714Z" fill="white"/>
<path d="M147.269 317.714C148.114 321.252 147.728 324.973 146.174 328.263" stroke="#263238" stroke-miterlimit="10"/>
<path d="M117.792 300.934C115.254 303.717 115.627 310.389 117.42 314.069" stroke="#263238" stroke-miterlimit="10"/>
<path d="M136.547 305.522C136.561 308.65 135.459 311.681 133.438 314.069" stroke="#263238" stroke-miterlimit="10"/>
<path d="M99.3054 302.262C98.8835 305.099 99.4994 307.993 101.04 310.413" stroke="#263238" stroke-miterlimit="10"/>
<path d="M88.5009 310.96C88.3895 313.174 89.0205 315.363 90.2937 317.178" stroke="#263238" stroke-miterlimit="10"/>
<path d="M103.309 257.268C103.978 256.963 104.722 256.863 105.447 256.982C106.172 257.1 106.846 257.43 107.384 257.932L108.851 256.022" stroke="#263238" stroke-miterlimit="10"/>
<path d="M115.254 265.827C116.236 265.238 117.395 265.019 118.524 265.209C119.653 265.399 120.677 265.985 121.412 266.863" stroke="#263238" stroke-miterlimit="10"/>
<path d="M133.904 271.649C134.95 271.182 136.087 270.952 137.232 270.977C138.377 271.001 139.503 271.278 140.529 271.789" stroke="#263238" stroke-miterlimit="10"/>
<path d="M92.4009 281.418C93.0206 280.382 93.9251 279.546 95.0067 279.009C96.0882 278.472 97.3012 278.258 98.5012 278.391" stroke="#263238" stroke-miterlimit="10"/>
<path d="M84.5898 292.55C84.6274 291.797 84.9216 291.078 85.4234 290.515C85.9253 289.952 86.6048 289.577 87.349 289.453" stroke="#263238" stroke-miterlimit="10"/>
<path d="M390.583 13.88L0 15.7197L5.9024 6.87011C7.29584 4.76481 9.18741 3.03619 11.4092 1.83772C13.631 0.639243 16.1143 0.00799152 18.6386 3.96446e-06H372.038C374.325 -0.00164341 376.583 0.51014 378.647 1.49763C380.71 2.48512 382.525 3.92314 383.959 5.70569L390.583 13.88Z" fill="white" stroke="#263238" stroke-linecap="round" stroke-linejoin="round"/>
<path d="M202.078 72.4389H180.681C158.724 72.4389 140.924 90.2424 140.924 112.204V133.606C140.924 155.568 158.724 173.371 180.681 173.371H202.078C224.035 173.371 241.835 155.568 241.835 133.606V112.204C241.835 90.2424 224.035 72.4389 202.078 72.4389Z" fill="#757575" stroke="#263238" stroke-linecap="round" stroke-linejoin="round"/>
<path d="M159.26 131.44V145.786C159.26 147.948 160.118 150.021 161.647 151.55C163.175 153.078 165.248 153.937 167.409 153.937H216.619C218.77 153.937 220.834 153.086 222.361 151.57C223.888 150.054 224.753 147.996 224.768 145.844C224.838 139.382 225.176 131.44 225.176 131.44H159.26Z" fill="#999999" stroke="#263238" stroke-linecap="round" stroke-linejoin="round"/>
<path d="M339.359 136.226H51.5735C50.0934 136.229 48.6465 135.787 47.4214 134.956C46.1963 134.125 45.2497 132.945 44.7048 131.568L0.314586 17.5828C0.045249 16.8937 -0.0516763 16.1492 0.0322416 15.4141C0.11616 14.679 0.378379 13.9756 0.79609 13.3649C1.2138 12.7543 1.77435 12.255 2.42898 11.9105C3.08361 11.5659 3.81249 11.3866 4.55221 11.3881H386.404C387.139 11.396 387.861 11.5822 388.508 11.9307C389.155 12.2792 389.707 12.7796 390.118 13.3888C390.529 13.9981 390.786 14.698 390.867 15.4285C390.948 16.159 390.851 16.8983 390.583 17.5828L346.193 131.533C345.656 132.911 344.717 134.095 343.498 134.932C342.28 135.769 340.838 136.22 339.359 136.226Z" fill="white" stroke="#263238" stroke-linecap="round" stroke-linejoin="round"/>
<path d="M341.501 126.294H48.7441L8.46338 18.6075H381.595L341.501 126.294Z" fill="white"/>
<path d="M224.838 136.075H159.574V140.546H224.838V136.075Z" fill="#263238"/>
<path d="M298.741 121.682H92.0057C90.8415 121.682 89.7938 121.17 89.5842 120.518L60.177 27.0729C59.851 26.0249 60.7707 25.1749 62.2376 25.1749H328.509C329.976 25.1749 330.896 26.0249 330.558 27.0729L301.163 120.518C300.941 121.158 299.87 121.682 298.741 121.682Z" fill="#38BFF2"/>
<path d="M296.669 119.552H94.101C93.7211 119.554 93.3508 119.433 93.0462 119.206C92.7416 118.979 92.5192 118.659 92.4129 118.294L68.4773 39.7419C68.3882 39.4742 68.3644 39.189 68.4078 38.9103C68.4513 38.6315 68.5607 38.3671 68.727 38.1392C68.8933 37.9114 69.1117 37.7265 69.364 37.6002C69.6162 37.4739 69.8949 37.4097 70.177 37.413H320.569C320.851 37.4097 321.13 37.4739 321.382 37.6002C321.635 37.7265 321.853 37.9114 322.019 38.1392C322.186 38.3671 322.295 38.6315 322.338 38.9103C322.382 39.189 322.358 39.4742 322.269 39.7419L298.357 118.294C298.249 118.658 298.026 118.977 297.722 119.203C297.417 119.43 297.048 119.552 296.669 119.552Z" fill="#263238"/>
<path d="M122.227 57.837H83.3784C82.4121 57.837 81.7834 58.3494 81.9697 59.0014C82.1576 59.3766 82.4526 59.6876 82.8174 59.8949C83.1821 60.1022 83.6002 60.1965 84.0186 60.1659H122.646C123.601 60.1659 124.276 59.6535 124.171 59.0014C124.067 58.3494 123.182 57.837 122.227 57.837Z" fill="white"/>
<path d="M123.519 64.9284H90.4798C89.5368 64.9284 88.9197 65.4291 89.0827 66.0928C89.2606 66.4633 89.5453 66.7722 89.9 66.9797C90.2547 67.1871 90.6634 67.2838 91.0735 67.2572H123.985C124.928 67.2572 125.591 66.7565 125.487 66.0928C125.382 65.4291 124.462 64.9284 123.519 64.9284Z" fill="white"/>
<path opacity="0.5" d="M124.777 71.7752H87.2904C86.359 71.7752 85.7536 72.2526 85.9166 72.8465C86.1039 73.202 86.391 73.4951 86.7426 73.6896C87.0943 73.884 87.4951 73.9714 87.8957 73.941H125.15C126.069 73.941 126.733 73.4636 126.628 72.8698C126.523 72.2759 125.708 71.7752 124.777 71.7752Z" fill="white"/>
<path d="M125.988 78.3891H103.973C103.065 78.3891 102.436 78.8549 102.576 79.4255C102.716 79.996 103.566 80.4618 104.474 80.4618H126.372C127.28 80.4618 127.932 79.996 127.827 79.4255C127.722 78.8549 126.907 78.3891 125.988 78.3891Z" fill="white"/>
<path d="M127.164 84.7702H90.9343C90.0495 84.7702 89.4441 85.2243 89.6071 85.7716C89.7701 86.3189 90.6083 86.773 91.5047 86.773H127.594C128.479 86.773 129.119 86.3305 129.026 85.7716C128.933 85.2127 128.06 84.7702 127.164 84.7702Z" fill="white"/>
<path d="M128.292 90.9533H99.0481C98.1634 90.9533 97.5696 91.3841 97.7093 91.9198C97.849 92.4554 98.6756 92.8862 99.5487 92.8862H128.653C129.526 92.8862 130.155 92.4554 130.062 91.9198C129.969 91.3841 129.177 90.9533 128.292 90.9533Z" fill="white"/>
<path d="M129.387 96.9268H100.62C99.7473 96.9268 99.1652 97.346 99.3049 97.8583C99.4446 98.3707 100.248 98.8015 101.109 98.8015H129.737C130.598 98.8015 131.215 98.3823 131.122 97.8583C131.029 97.3343 130.26 96.9268 129.387 96.9268Z" fill="white"/>
<path d="M130.447 102.702H99.0136C98.1638 102.702 97.5817 103.11 97.7214 103.611C97.8611 104.111 98.6527 104.519 99.5026 104.519H130.738C131.587 104.519 132.204 104.111 132.111 103.611C132.018 103.11 131.308 102.702 130.447 102.702Z" fill="white"/>
<path opacity="0.5" d="M131.482 108.303H111.179C110.341 108.303 109.759 108.699 109.875 109.188C109.992 109.677 110.772 110.062 111.598 110.062H131.773C132.612 110.062 133.217 109.666 133.136 109.188C133.054 108.711 132.321 108.303 131.482 108.303Z" fill="white"/>
<path opacity="0.5" d="M120.877 50.4779H91.9239C90.946 50.4779 90.2941 51.0135 90.4687 51.6423C90.6561 52.0204 90.9528 52.3336 91.3201 52.5412C91.6875 52.7488 92.1088 52.8413 92.5293 52.8067H121.308C122.286 52.8067 122.973 52.2711 122.856 51.6423C122.694 51.262 122.415 50.9438 122.058 50.7342C121.702 50.5246 121.288 50.4348 120.877 50.4779Z" fill="white"/>
<path d="M119.469 42.8509H79.1646C78.175 42.8509 77.5231 43.3982 77.721 44.0852C77.9158 44.4798 78.2234 44.8078 78.6047 45.0275C78.986 45.2472 79.424 45.3488 79.8631 45.3195H119.934C120.912 45.3195 121.622 44.7722 121.494 44.0852C121.366 43.3982 120.493 42.8509 119.469 42.8509Z" fill="white"/>
<path d="M132.472 113.729H99.072C98.2454 113.729 97.6866 114.114 97.8146 114.579C97.9427 115.045 98.7227 115.43 99.5493 115.43H132.787C133.602 115.43 134.207 115.045 134.125 114.579C134.044 114.114 133.299 113.729 132.472 113.729Z" fill="white"/>
<path opacity="0.5" d="M135.872 60.422H143.404L143.032 57.5459H135.441L135.872 60.422Z" fill="white"/>
<path opacity="0.5" d="M136.92 67.4202H144.324L143.963 64.6489H136.5L136.92 67.4202Z" fill="white"/>
<path opacity="0.5" d="M137.932 74.1856H145.209L144.859 71.5074H137.537L137.932 74.1856Z" fill="white"/>
<path opacity="0.5" d="M138.922 80.718H146.07L145.721 78.1213H138.526L138.922 80.718Z" fill="white"/>
<path opacity="0.5" d="M139.865 87.0175H146.897L146.559 84.5257H139.493L139.865 87.0175Z" fill="white"/>
<path opacity="0.5" d="M140.785 93.1191H147.688L147.374 90.7088H140.412L140.785 93.1191Z" fill="white"/>
<path opacity="0.5" d="M141.67 99.0344H148.468L148.166 96.6823H141.32L141.67 99.0344Z" fill="white"/>
<path opacity="0.5" d="M142.519 104.74H149.213L148.922 102.481H142.181L142.519 104.74Z" fill="white"/>
<path opacity="0.5" d="M143.357 110.283H149.946L149.655 108.082H143.031L143.357 110.283Z" fill="white"/>
<path opacity="0.5" d="M134.777 53.1677H142.449L142.065 50.1751H134.335L134.777 53.1677Z" fill="white"/>
<path opacity="0.5" d="M133.648 45.6338H141.46L141.064 42.5365H133.183L133.648 45.6338Z" fill="white"/>
<path opacity="0.5" d="M144.161 115.639H150.645L150.366 113.508H143.846L144.161 115.639Z" fill="white"/>
<path d="M183.871 103.611C183.871 103.11 184.523 102.702 185.373 102.702H296.925C297.775 102.702 298.357 103.11 298.205 103.611C298.023 103.916 297.757 104.163 297.44 104.323C297.123 104.484 296.767 104.552 296.413 104.519H185.431C184.581 104.519 183.883 104.111 183.871 103.611Z" fill="white"/>
<path d="M298.054 98.8015H236.283C235.421 98.8015 234.769 98.3823 234.827 97.8583C234.886 97.3343 235.631 96.9268 236.504 96.9268H298.613C299.474 96.9268 300.056 97.346 299.905 97.8583C299.722 98.1785 299.449 98.4382 299.12 98.6058C298.791 98.7733 298.421 98.8413 298.054 98.8015Z" fill="white"/>
<path opacity="0.5" d="M221.625 98.8015H202.416C201.555 98.8015 200.856 98.3823 200.868 97.8583C200.879 97.3343 201.578 96.9268 202.451 96.9268H221.777C222.638 96.9268 223.313 97.346 223.267 97.8583C223.22 98.3707 222.487 98.8015 221.625 98.8015Z" fill="white"/>
<path d="M261.719 92.8862H174.592C173.719 92.8862 172.985 92.4554 172.95 91.9198C172.916 91.3841 173.602 90.9533 174.487 90.9533H262.08C262.953 90.9533 263.594 91.3841 263.489 91.9198C263.384 92.4554 262.604 92.8862 261.719 92.8862Z" fill="white"/>
<path opacity="0.5" d="M156.385 90.9533H162.59C163.463 90.9533 164.22 91.3841 164.266 91.9198C164.313 92.4554 163.638 92.8862 162.765 92.8862H156.583C155.71 92.8862 154.953 92.4554 154.895 91.9198C154.836 91.3841 155.5 90.9533 156.385 90.9533Z" fill="white"/>
<path d="M274.328 85.7716C274.211 86.3305 273.397 86.773 272.5 86.773H190.402C189.506 86.773 188.784 86.3305 188.772 85.7716C188.76 85.2127 189.482 84.7702 190.367 84.7702H272.919C273.816 84.7702 274.444 85.2243 274.328 85.7716Z" fill="white"/>
<path d="M155.721 84.7702H179.005C179.902 84.7702 180.647 85.2243 180.67 85.7716C180.693 86.3189 179.983 86.773 179.098 86.773H155.931C155.046 86.773 154.278 86.3305 154.208 85.7716C154.138 85.2127 154.825 84.7702 155.721 84.7702Z" fill="white"/>
<path d="M155.034 78.3891H244.606C245.514 78.3891 246.189 78.8549 246.108 79.4255C246.026 79.996 245.235 80.4618 244.327 80.4618H155.255C154.359 80.4618 153.567 79.996 153.509 79.4255C153.451 78.8549 154.126 78.3891 155.034 78.3891Z" fill="white"/>
<path d="M213.185 73.941C212.265 73.941 211.544 73.4636 211.567 72.8698C211.59 72.2759 212.359 71.7985 213.29 71.7985H260.544C261.475 71.7985 262.139 72.2759 262.034 72.8698C261.929 73.4636 261.103 73.941 260.183 73.941H213.185Z" fill="white"/>
<path d="M154.335 71.7752H195.233C196.164 71.7752 196.909 72.2526 196.909 72.8465C196.909 73.4403 196.164 73.941 195.233 73.941H154.568C153.637 73.941 152.845 73.4636 152.775 72.8698C152.705 72.2759 153.404 71.7752 154.335 71.7752Z" fill="white"/>
<path d="M307.134 67.1524H194.546C193.615 67.1524 192.847 66.6517 192.847 65.988C192.847 65.3243 193.603 64.8236 194.546 64.8236H307.763C308.706 64.8236 309.323 65.3243 309.148 65.988C308.964 66.3584 308.675 66.6663 308.317 66.8734C307.959 67.0805 307.547 67.1775 307.134 67.1524Z" fill="white"/>
<path d="M309.09 60.1309H210.135C209.18 60.1309 208.424 59.6186 208.447 58.9665C208.47 58.3144 209.262 57.8021 210.228 57.8021H309.859C310.813 57.8021 311.442 58.3144 311.256 58.9665C311.058 59.3595 310.744 59.682 310.357 59.8904C309.969 60.0987 309.527 60.1827 309.09 60.1309Z" fill="white"/>
<path opacity="0.5" d="M311.232 52.8649H290.463C289.485 52.8649 288.822 52.3293 288.973 51.7005C289.155 51.3201 289.448 51.0046 289.815 50.7964C290.181 50.5882 290.603 50.4973 291.022 50.5361H311.884C312.862 50.5361 313.502 51.0717 313.305 51.7005C313.108 52.0736 312.808 52.382 312.44 52.5886C312.073 52.7952 311.653 52.8911 311.232 52.8649Z" fill="white"/>
<path d="M275.969 52.8649H199.797C198.83 52.8649 198.039 52.3293 198.05 51.7005C198.062 51.0717 198.842 50.5361 199.82 50.5361H276.493C277.471 50.5361 278.158 51.0717 278.018 51.7005C277.844 52.0863 277.551 52.4069 277.183 52.6161C276.815 52.8253 276.39 52.9124 275.969 52.8649Z" fill="white"/>
<path d="M158.224 108.303H228.576C229.414 108.303 230.054 108.699 229.996 109.188C229.938 109.677 229.239 110.062 228.401 110.062H158.422C157.584 110.062 156.862 109.666 156.815 109.188C156.769 108.711 157.386 108.303 158.224 108.303Z" fill="white"/>
<path d="M158.806 113.729H266.889C267.704 113.729 268.298 114.114 268.193 114.579C268.088 115.045 267.355 115.43 266.528 115.43H158.992C158.166 115.43 157.456 115.045 157.409 114.579C157.363 114.114 157.98 113.729 158.806 113.729Z" fill="white"/>
<path d="M272.186 45.3195H217.12C216.131 45.3195 215.362 44.7722 215.397 44.0852C215.432 43.3982 216.259 42.8509 217.26 42.8509H272.652C273.653 42.8509 274.351 43.3982 274.223 44.0852C274.059 44.4809 273.773 44.8139 273.407 45.0358C273.04 45.2578 272.613 45.3572 272.186 45.3195Z" fill="white"/>
<path opacity="0.5" d="M201.566 45.3195H151.507C150.517 45.3195 149.655 44.7722 149.574 44.0852C149.492 43.3982 150.238 42.8509 151.239 42.8509H201.59C202.579 42.8509 203.382 43.3982 203.371 44.0852C203.359 44.7722 202.556 45.3195 201.566 45.3195Z" fill="white"/>
<path opacity="0.5" d="M244.176 108.303C245.014 108.303 245.643 108.699 245.573 109.188C245.503 109.677 244.769 110.062 243.931 110.062H238.495C237.668 110.062 237.039 109.666 237.097 109.188C237.156 108.711 237.877 108.303 238.716 108.303H244.176Z" fill="white"/>
<path opacity="0.5" d="M177.456 103.611C177.456 104.111 176.816 104.519 175.966 104.519H168.562C167.712 104.519 166.99 104.111 166.955 103.611C166.921 103.11 167.572 102.702 168.422 102.702H175.861C176.723 102.702 177.433 103.11 177.456 103.611Z" fill="white"/>
<path opacity="0.5" d="M266.807 79.4255C266.702 79.996 265.888 80.4618 264.979 80.4618H256.318C255.41 80.4618 254.758 79.996 254.839 79.4255C254.921 78.8549 255.747 78.3891 256.656 78.3891H265.364C266.272 78.3891 266.924 78.8549 266.807 79.4255Z" fill="white"/>
<path opacity="0.5" d="M293.828 84.7702C294.724 84.7702 295.33 85.2243 295.178 85.7716C294.999 86.1045 294.726 86.377 294.392 86.5551C294.059 86.7333 293.68 86.809 293.304 86.773H286.401C285.504 86.773 284.899 86.3305 285.027 85.7716C285.203 85.4387 285.474 85.1656 285.806 84.9873C286.137 84.809 286.515 84.7334 286.89 84.7702H293.828Z" fill="white"/>
<path opacity="0.5" d="M180.914 67.1524C179.983 67.1524 179.203 66.6517 179.168 65.988C179.133 65.3243 179.889 64.8236 180.832 64.8236H188.178C189.121 64.8236 189.89 65.3243 189.901 65.988C189.913 66.6517 189.156 67.1524 188.225 67.1524H180.914Z" fill="white"/>
<path d="M80.9105 31.2998C81.0738 31.6891 81.1351 32.1138 81.0885 32.5335C81.0419 32.9532 80.889 33.354 80.6441 33.698C80.3993 34.042 80.0707 34.3178 79.6895 34.4992C79.3082 34.6807 78.887 34.7618 78.4657 34.7348C77.4485 34.6756 76.4712 34.3183 75.6556 33.7075C74.84 33.0966 74.222 32.2593 73.8788 31.2998C73.7067 30.9094 73.6377 30.4815 73.6783 30.0568C73.719 29.6322 73.8679 29.2251 74.111 28.8745C74.354 28.5239 74.6829 28.2416 75.0662 28.0546C75.4496 27.8676 75.8745 27.7822 76.3003 27.8065C77.3302 27.8596 78.3205 28.2211 79.1425 28.844C79.9646 29.4669 80.5805 30.3224 80.9105 31.2998Z" fill="white"/>
<path d="M90.3407 31.358C90.4871 31.7567 90.5316 32.1857 90.4701 32.606C90.4086 33.0263 90.2431 33.4246 89.9887 33.7647C89.7343 34.1048 89.3989 34.3759 89.0131 34.5534C88.6273 34.731 88.2033 34.8094 87.7795 34.7814C86.7753 34.7313 85.8099 34.3771 85.0115 33.7657C84.2131 33.1543 83.6194 32.3146 83.3091 31.358C83.1551 30.9574 83.1037 30.5247 83.1596 30.0992C83.2155 29.6736 83.377 29.2689 83.6292 28.9217C83.8814 28.5745 84.2165 28.2959 84.6038 28.1113C84.9912 27.9267 85.4185 27.8419 85.847 27.8647C86.8649 27.9118 87.8433 28.2729 88.6479 28.8983C89.4525 29.5238 90.0438 30.383 90.3407 31.358Z" fill="white"/>
<path d="M99.9213 31.2998C100.052 31.7115 100.079 32.1489 100.002 32.5738C99.9242 32.9987 99.7437 33.3981 99.476 33.737C99.2084 34.0759 98.8618 34.3441 98.4665 34.5181C98.0713 34.692 97.6394 34.7664 97.2087 34.7348C96.2137 34.6895 95.2578 34.3339 94.4749 33.7179C93.692 33.1019 93.1214 32.2564 92.8431 31.2998C92.7059 30.8896 92.6711 30.4522 92.7415 30.0255C92.8119 29.5988 92.9855 29.1957 93.2471 28.8514C93.5087 28.5071 93.8505 28.2319 94.2427 28.0498C94.6349 27.8677 95.0656 27.7842 95.4974 27.8065C96.5121 27.8364 97.4901 28.1923 98.2869 28.8214C99.0836 29.4506 99.6567 30.3195 99.9213 31.2998Z" fill="white"/>
<path d="M91.7256 173.034H67.173C65.6292 173.034 64.1486 173.647 63.057 174.739C61.9653 175.831 61.3521 177.312 61.3521 178.856V190.814C61.3521 192.359 61.9653 193.839 63.057 194.931C64.1486 196.023 65.6292 196.637 67.173 196.637H73.5876L78.4539 207.664L85.3109 196.637H91.7256C93.2694 196.637 94.7499 196.023 95.8416 194.931C96.9332 193.839 97.5465 192.359 97.5465 190.814V178.809C97.5342 177.273 96.9155 175.804 95.8252 174.722C94.7349 173.641 93.2613 173.034 91.7256 173.034Z" fill="white" stroke="#263238" stroke-linecap="round" stroke-linejoin="round"/>
<path d="M76.0327 179.904C76.0327 179.595 76.1554 179.299 76.3737 179.08C76.592 178.862 76.8881 178.739 77.1969 178.739C77.492 178.739 77.7765 178.85 77.9926 179.051C78.2087 179.252 78.3404 179.528 78.3611 179.822C78.3611 180.131 78.2384 180.427 78.0201 180.646C77.8018 180.864 77.5057 180.987 77.1969 180.987C76.9018 180.987 76.6173 180.876 76.4012 180.675C76.1851 180.474 76.0534 180.198 76.0327 179.904ZM76.2888 182.337H78.1632V190.325H76.2539L76.2888 182.337Z" fill="#263238"/>
<path d="M82.6683 181.895V182.372H84.8686V183.874H82.7382V190.302H80.9104V183.874H79.5483V182.372H80.9104V181.86C80.8806 181.482 80.9347 181.102 81.0689 180.747C81.203 180.392 81.4139 180.072 81.6865 179.808C81.959 179.544 82.2865 179.344 82.6454 179.222C83.0043 179.099 83.3858 179.058 83.7627 179.1C84.3596 179.07 84.9518 179.22 85.4624 179.531L84.9385 180.94C84.6335 180.73 84.2726 180.617 83.9024 180.614C83.0758 180.614 82.6683 181.068 82.6683 181.895Z" fill="#263238"/>
<path d="M166.49 174.71H141.925C140.382 174.71 138.901 175.324 137.809 176.416C136.718 177.508 136.104 178.988 136.104 180.533V192.48C136.104 194.024 136.718 195.505 137.809 196.596C138.901 197.688 140.382 198.302 141.925 198.302H148.352L153.206 209.329L160.063 198.302H166.49C168.033 198.302 169.514 197.688 170.606 196.596C171.697 195.505 172.311 194.024 172.311 192.48V180.486C172.298 178.95 171.68 177.481 170.589 176.399C169.499 175.317 168.025 174.71 166.49 174.71Z" fill="white" stroke="#263238" stroke-linecap="round" stroke-linejoin="round"/>
<path d="M147.095 188.579H140.82C140.943 189.161 141.275 189.678 141.753 190.032C142.231 190.386 142.823 190.553 143.416 190.5C143.818 190.515 144.218 190.445 144.591 190.294C144.964 190.144 145.302 189.916 145.581 189.627L146.582 190.791C145.978 191.392 145.214 191.809 144.381 191.991C143.548 192.173 142.681 192.114 141.88 191.821C141.08 191.528 140.38 191.012 139.862 190.335C139.344 189.657 139.03 188.846 138.957 187.997C138.941 187.452 139.036 186.911 139.238 186.405C139.44 185.899 139.743 185.441 140.13 185.058C140.516 184.674 140.977 184.374 141.485 184.177C141.992 183.979 142.534 183.888 143.078 183.909C143.623 183.887 144.166 183.979 144.672 184.181C145.179 184.382 145.637 184.687 146.018 185.077C146.399 185.467 146.694 185.932 146.883 186.443C147.073 186.954 147.153 187.499 147.118 188.043C147.118 188.171 147.106 188.404 147.095 188.579ZM140.808 187.344H145.337C145.281 186.792 145.016 186.281 144.596 185.918C144.176 185.554 143.633 185.365 143.078 185.388C142.523 185.367 141.98 185.557 141.559 185.92C141.137 186.283 140.869 186.792 140.808 187.344Z" fill="#263238"/>
<path d="M148.911 180.882H150.762V191.979H148.888L148.911 180.882Z" fill="#263238"/>
<path d="M152.321 191.187L153.031 189.766C153.869 190.28 154.831 190.553 155.814 190.558C156.978 190.558 157.49 190.232 157.49 189.673C157.49 188.148 152.554 189.58 152.554 186.401C152.554 184.888 153.916 183.898 156.047 183.898C157.085 183.881 158.112 184.117 159.039 184.585L158.317 186.005C157.611 185.595 156.805 185.39 155.988 185.411C154.824 185.411 154.312 185.784 154.312 186.308C154.312 187.927 159.248 186.483 159.248 189.615C159.248 191.106 157.874 192.084 155.628 192.084C154.464 192.091 153.321 191.781 152.321 191.187Z" fill="#263238"/>
<path d="M168.411 188.579H162.136C162.259 189.161 162.591 189.678 163.069 190.032C163.548 190.386 164.139 190.553 164.732 190.5C165.134 190.515 165.535 190.445 165.908 190.294C166.281 190.144 166.618 189.916 166.897 189.627L167.899 190.791C167.294 191.392 166.53 191.809 165.698 191.991C164.865 192.173 163.997 192.114 163.197 191.821C162.396 191.528 161.696 191.012 161.178 190.335C160.66 189.657 160.346 188.846 160.273 187.997C160.257 187.452 160.353 186.911 160.554 186.405C160.756 185.899 161.06 185.441 161.446 185.058C161.833 184.674 162.294 184.374 162.801 184.177C163.308 183.979 163.851 183.888 164.394 183.909C164.939 183.887 165.482 183.979 165.988 184.181C166.495 184.382 166.953 184.687 167.334 185.077C167.715 185.467 168.01 185.932 168.199 186.443C168.389 186.954 168.469 187.499 168.434 188.043C168.434 188.171 168.423 188.404 168.411 188.579ZM162.124 187.344H166.653C166.597 186.792 166.332 186.281 165.912 185.918C165.492 185.554 164.949 185.365 164.394 185.388C163.839 185.367 163.296 185.557 162.875 185.92C162.454 186.283 162.186 186.792 162.124 187.344Z" fill="#263238"/>
<path d="M238.972 174H214.408C212.864 174 211.383 174.614 210.292 175.705C209.2 176.797 208.587 178.278 208.587 179.822V191.781C208.587 193.325 209.2 194.806 210.292 195.898C211.383 196.99 212.864 197.603 214.408 197.603H220.834L225.689 208.63L232.546 197.603H238.972C240.516 197.603 241.996 196.99 243.088 195.898C244.18 194.806 244.793 193.325 244.793 191.781V179.776C244.781 178.24 244.162 176.771 243.072 175.689C241.981 174.607 240.508 174 238.972 174Z" fill="white" stroke="#263238" stroke-linecap="round" stroke-linejoin="round"/>
<path d="M220.042 182.861V183.397H222.242V184.899H220.1V191.327H218.284V184.899H216.969V183.397H218.284V182.885C218.254 182.507 218.309 182.127 218.443 181.772C218.577 181.417 218.788 181.096 219.06 180.833C219.333 180.569 219.66 180.369 220.019 180.246C220.378 180.124 220.76 180.083 221.137 180.125C221.73 180.096 222.318 180.246 222.825 180.556L222.301 181.965C222.002 181.75 221.644 181.632 221.276 181.627C220.45 181.569 220.042 182.011 220.042 182.861Z" fill="#263238"/>
<path d="M222.72 187.275C222.687 186.425 222.91 185.585 223.358 184.863C223.807 184.141 224.461 183.569 225.237 183.222C226.013 182.874 226.875 182.767 227.712 182.914C228.549 183.06 229.324 183.454 229.936 184.044C230.547 184.634 230.969 185.394 231.146 186.225C231.322 187.057 231.246 187.923 230.927 188.711C230.608 189.499 230.061 190.173 229.356 190.648C228.65 191.122 227.819 191.375 226.969 191.373C226.416 191.406 225.861 191.323 225.341 191.13C224.821 190.938 224.346 190.64 223.947 190.255C223.548 189.87 223.233 189.406 223.022 188.893C222.81 188.38 222.708 187.829 222.72 187.275ZM229.344 187.275C229.312 186.822 229.149 186.389 228.875 186.028C228.601 185.667 228.227 185.394 227.8 185.243C227.372 185.091 226.91 185.068 226.47 185.175C226.029 185.283 225.63 185.516 225.32 185.847C225.011 186.179 224.805 186.593 224.727 187.04C224.65 187.487 224.705 187.946 224.885 188.362C225.065 188.779 225.362 189.133 225.741 189.383C226.119 189.632 226.562 189.765 227.016 189.766C227.336 189.767 227.652 189.702 227.946 189.575C228.24 189.448 228.504 189.262 228.723 189.028C228.941 188.794 229.109 188.518 229.216 188.216C229.323 187.914 229.367 187.594 229.344 187.275Z" fill="#263238"/>
<path d="M237.632 183.187V184.969C237.489 184.959 237.345 184.959 237.202 184.969C236.877 184.943 236.551 184.991 236.247 185.108C235.943 185.225 235.67 185.409 235.446 185.645C235.223 185.882 235.055 186.166 234.956 186.476C234.857 186.787 234.829 187.115 234.873 187.438V191.315H232.999V183.281H234.78V184.445C235.106 184.006 235.54 183.66 236.04 183.439C236.54 183.219 237.089 183.132 237.632 183.187Z" fill="#263238"/>
<path d="M310.406 173.034H285.807C284.263 173.034 282.782 173.647 281.691 174.739C280.599 175.831 279.986 177.312 279.986 178.856V190.814C279.986 192.359 280.599 193.839 281.691 194.931C282.782 196.023 284.263 196.637 285.807 196.637H292.233L297.088 207.664L303.945 196.637H310.371C311.915 196.637 313.395 196.023 314.487 194.931C315.579 193.839 316.192 192.359 316.192 190.814V178.809C316.18 177.279 315.566 175.816 314.483 174.735C313.4 173.654 311.936 173.043 310.406 173.034Z" fill="white" stroke="#263238" stroke-linecap="round" stroke-linejoin="round"/>
<path d="M294.934 181.918H301.826V183.397H294.934V181.918ZM294.934 185.54H301.826V187.042H294.934V185.54Z" fill="#263238"/>
<path d="M129.166 159.212H104.602C103.058 159.212 101.577 159.825 100.486 160.917C99.394 162.009 98.7808 163.49 98.7808 165.034V176.981C98.7808 178.525 99.394 180.006 100.486 181.098C101.577 182.19 103.058 182.803 104.602 182.803H111.028L115.883 193.83L122.74 182.803H129.166C130.71 182.803 132.19 182.19 133.282 181.098C134.374 180.006 134.987 178.525 134.987 176.981V164.987C134.975 163.451 134.356 161.982 133.266 160.901C132.175 159.819 130.702 159.212 129.166 159.212Z" fill="white" stroke="#263238" stroke-linecap="round" stroke-linejoin="round"/>
<path d="M111.109 164.172H114.672V165.674H112.972V176.678H114.672V178.18H111.109V164.172Z" fill="#263238"/>
<path d="M119.329 178.18V176.678H121.017V165.674H119.329V164.172H122.821V178.145L119.329 178.18Z" fill="#263238"/>
<path d="M202.184 157.989H177.62C176.076 157.989 174.595 158.603 173.504 159.695C172.412 160.786 171.799 162.267 171.799 163.811V175.712C171.799 177.256 172.412 178.737 173.504 179.829C174.595 180.921 176.076 181.534 177.62 181.534H184.046L188.912 192.561L195.769 181.534H202.184C203.728 181.534 205.208 180.921 206.3 179.829C207.392 178.737 208.005 177.256 208.005 175.712V163.765C207.993 162.229 207.374 160.76 206.284 159.678C205.193 158.596 203.72 157.989 202.184 157.989Z" fill="white" stroke="#263238" stroke-linecap="round" stroke-linejoin="round"/>
<path d="M184.907 169.901C185.5 170.099 185.791 170.507 185.791 171.427V174.28C185.765 174.433 185.775 174.591 185.82 174.74C185.865 174.89 185.945 175.026 186.052 175.139C186.16 175.253 186.292 175.339 186.439 175.392C186.585 175.445 186.743 175.463 186.897 175.444H187.212V176.946H186.455C186.118 176.996 185.774 176.969 185.45 176.865C185.126 176.761 184.83 176.584 184.584 176.348C184.339 176.112 184.152 175.822 184.036 175.502C183.92 175.182 183.88 174.839 183.917 174.501V171.427C183.917 170.926 183.661 170.705 183.242 170.705H182.753V169.179H183.242C183.661 169.179 183.917 168.958 183.917 168.457V165.372C183.879 165.034 183.919 164.691 184.035 164.371C184.151 164.052 184.339 163.763 184.584 163.527C184.83 163.292 185.126 163.116 185.451 163.014C185.775 162.912 186.119 162.886 186.455 162.938H187.212V164.44H186.851C186.695 164.419 186.537 164.435 186.389 164.487C186.241 164.539 186.108 164.625 186 164.739C185.892 164.853 185.812 164.991 185.768 165.141C185.724 165.292 185.716 165.45 185.745 165.605V168.446C185.791 169.307 185.5 169.715 184.907 169.901Z" fill="#263238"/>
<path d="M196.316 169.144V170.67H195.804C195.396 170.67 195.14 170.891 195.14 171.392V174.466C195.176 174.805 195.133 175.148 195.016 175.468C194.899 175.788 194.71 176.077 194.464 176.313C194.218 176.549 193.922 176.726 193.597 176.829C193.272 176.933 192.928 176.961 192.591 176.911H191.834V175.409H192.148C192.307 175.435 192.47 175.423 192.623 175.374C192.776 175.325 192.916 175.24 193.029 175.126C193.143 175.012 193.228 174.873 193.277 174.719C193.327 174.566 193.339 174.403 193.313 174.245V171.392C193.313 170.472 193.58 170.064 194.174 169.866C193.58 169.68 193.313 169.273 193.313 168.341V165.5C193.341 165.341 193.331 165.177 193.283 165.022C193.235 164.868 193.15 164.727 193.035 164.613C192.921 164.498 192.78 164.413 192.626 164.365C192.471 164.316 192.308 164.306 192.148 164.335H191.834V162.903H192.591C192.927 162.851 193.271 162.877 193.596 162.98C193.921 163.082 194.218 163.257 194.464 163.492C194.711 163.727 194.9 164.016 195.017 164.336C195.134 164.656 195.176 164.998 195.14 165.337V168.422C195.14 168.923 195.396 169.144 195.804 169.144H196.316Z" fill="#263238"/>
<path d="M274.433 155.567H249.869C248.325 155.567 246.844 156.181 245.753 157.273C244.661 158.364 244.048 159.845 244.048 161.389V173.336C244.048 174.881 244.661 176.361 245.753 177.453C246.844 178.545 248.325 179.159 249.869 179.159H256.283L261.15 190.186L268.007 179.159H274.433C275.977 179.159 277.457 178.545 278.549 177.453C279.641 176.361 280.254 174.881 280.254 173.336V161.343C280.242 159.807 279.623 158.338 278.533 157.256C277.442 156.174 275.969 155.567 274.433 155.567Z" fill="white" stroke="#263238" stroke-linecap="round" stroke-linejoin="round"/>
<path d="M261.173 164.405C261.156 164.234 261.175 164.061 261.23 163.897C261.284 163.734 261.371 163.584 261.487 163.456C261.603 163.329 261.744 163.227 261.901 163.157C262.059 163.087 262.229 163.051 262.401 163.051C262.573 163.051 262.743 163.087 262.901 163.157C263.058 163.227 263.199 163.329 263.315 163.456C263.431 163.584 263.518 163.734 263.572 163.897C263.627 164.061 263.646 164.234 263.629 164.405C263.646 164.577 263.627 164.75 263.572 164.913C263.518 165.077 263.431 165.227 263.315 165.354C263.199 165.482 263.058 165.584 262.901 165.654C262.743 165.723 262.573 165.759 262.401 165.759C262.229 165.759 262.059 165.723 261.901 165.654C261.744 165.584 261.603 165.482 261.487 165.354C261.371 165.227 261.284 165.077 261.23 164.913C261.175 164.75 261.156 164.577 261.173 164.405ZM263.629 170.111C263.597 170.557 263.479 170.992 263.28 171.392L262.512 173.511H261.347L261.953 171.182C261.737 171.091 261.553 170.936 261.427 170.739C261.3 170.542 261.236 170.31 261.243 170.076C261.243 169.753 261.371 169.444 261.599 169.216C261.827 168.987 262.137 168.859 262.459 168.859C262.782 168.859 263.091 168.987 263.319 169.216C263.548 169.444 263.676 169.753 263.676 170.076L263.629 170.111Z" fill="#263238"/>
<path d="M178.411 364.512H202.963C204.507 364.512 205.988 363.898 207.079 362.807C208.171 361.715 208.784 360.234 208.784 358.69V346.778C208.769 345.244 208.149 343.778 207.059 342.698C205.969 341.619 204.497 341.014 202.963 341.014H196.549L194.674 329.987L184.825 341.014H178.411C176.877 341.014 175.405 341.619 174.315 342.698C173.225 343.778 172.605 345.244 172.59 346.778V358.736C172.602 360.272 173.221 361.741 174.311 362.823C175.401 363.905 176.875 364.512 178.411 364.512Z" fill="white" stroke="#263238" stroke-linecap="round" stroke-linejoin="round"/>
<path d="M187.037 350.306L181.88 352.239L187.037 354.172V355.732L180.146 353.054V351.424L187.037 348.745V350.306Z" fill="#263238"/>
<path d="M192.486 344.868H194.151L189.18 358.969H187.55L192.486 344.868Z" fill="#263238"/>
<path d="M201.404 351.424V353.042L194.512 355.72V354.16L199.657 352.239L194.5 350.317V348.745L201.404 351.424Z" fill="#263238"/>
<path d="M22.2701 277.471H46.8227C48.3665 277.471 49.8471 276.858 50.9387 275.766C52.0304 274.674 52.6436 273.193 52.6436 271.649V259.748C52.6436 258.204 52.0304 256.723 50.9387 255.632C49.8471 254.54 48.3665 253.926 46.8227 253.926H40.4081L41.8051 242.899L28.6848 253.926H22.2701C20.7263 253.926 19.2458 254.54 18.1541 255.632C17.0625 256.723 16.4492 258.204 16.4492 259.748V271.695C16.4615 273.231 17.0802 274.7 18.1705 275.782C19.2608 276.864 20.7344 277.471 22.2701 277.471Z" fill="white" stroke="#263238" stroke-linecap="round" stroke-linejoin="round"/>
<path d="M29.5469 269.891C29.5469 269.582 29.6695 269.286 29.8879 269.067C30.1062 268.849 30.4023 268.726 30.7111 268.726C31.0198 268.726 31.3159 268.849 31.5343 269.067C31.7526 269.286 31.8752 269.582 31.8752 269.891C31.8752 270.199 31.7526 270.496 31.5343 270.714C31.3159 270.932 31.0198 271.055 30.7111 271.055C30.4023 271.055 30.1062 270.932 29.8879 270.714C29.6695 270.496 29.5469 270.199 29.5469 269.891ZM29.6866 260.482H31.8985L31.526 267.469H30.0125L29.6866 260.482Z" fill="#263238"/>
<path d="M33.7959 263.16H40.6879V264.662H33.7959V263.16ZM33.7959 266.782H40.6879V268.284H33.7959V266.782Z" fill="#263238"/>
</g>
<defs>
<clipPath id="clip0_8_15">
<rect width="390.895" height="408.153" fill="white"/>
</clipPath>
</defs>
</svg>
